<?xml version="1.0" encoding="UTF-8"?>
<!DOCTYPE svg PUBLIC "-//W3C//DTD SVG 1.1//EN" "http://www.w3.org/Graphics/SVG/1.1/DTD/svg11.dtd">
<!-- Creator: CorelDRAW 2018 (64-Bit Evaluation Version) -->
<svg xmlns="http://www.w3.org/2000/svg" xml:space="preserve" width="6in" height="5in" version="1.1" shape-rendering="geometricPrecision" text-rendering="geometricPrecision" image-rendering="optimizeQuality" fill-rule="evenodd" clip-rule="evenodd"
viewBox="0 0 8139.99 6316.81"
 xmlns:xlink="http://www.w3.org/1999/xlink">
 <g id="Layer_x0020_1">
  <metadata id="CorelCorpID_0Corel-Layer"/>
  <path fill="#39789B" d="M5242.79 5518.93c-28.98,-45.37 -161.86,-166.06 -209.74,-214.16 -72.01,-72.35 -138.12,-145.78 -212.41,-212.78 -10.31,25.05 3.21,5.68 -19.1,27.19 -1.99,1.92 -14.79,10.99 -18.65,14.01 -453.09,354.07 -922.78,560.26 -1535.03,581.95 -780.19,27.65 -1513.54,-310.69 -1949.82,-794.3 -21.49,-23.83 -46.67,-45.31 -67.15,-71.14 -20.07,-25.31 -43.7,-51.45 -63.35,-75.09 -196.72,-236.62 -376.41,-563.43 -469.53,-889.67 -533.8,-1870.24 1074.12,-3638.47 2995.99,-3232.16 1067.71,225.73 1943.76,1142.03 2016.58,2360.45l597.91 0.22c0,-39.93 -5.52,-110.76 -11.56,-152.88 -52.78,-367.93 -82.56,-587.58 -240.55,-947.89 -80.71,-184.08 -82.33,-178.74 -168.37,-336.31 -22.59,-41.37 -40.55,-67.4 -64.48,-106.47 -120.16,-196.21 -172.3,-235.72 -288.34,-387.28l-340.06 -335.55c-93.08,-81.15 -186.06,-148.17 -288.34,-216.35 -169.74,-113.15 -356.58,-217.05 -551.88,-294.68 -341.54,-135.76 -743.02,-236.92 -1123.32,-236.05 -115.81,0.26 -220.82,5.5 -325.76,7.99 -66.61,1.58 -231.89,28.13 -302.2,39.68 -570.01,93.66 -1182.27,396.93 -1583.93,784.81 -19.06,18.4 -26.17,20.06 -44.87,36.53 -129.96,114.44 -328.78,364.97 -429.42,506.68 -147.47,207.68 -252.49,433.2 -347.77,669.73 -129.8,322.24 -192.84,693.43 -197.64,1059.97l0 90.79c2.79,213.64 25.24,424.18 65.7,620.9 36.24,176.2 93.74,354.35 158.74,516.89 77.26,193.22 151.65,328.26 255.44,501.58 12.39,20.69 20.73,34.38 34.55,54.99l139.3 194.44c27.23,33.43 48.49,62.41 76.77,94.17 70.46,79.09 74.18,90.34 162.86,179.02l126.07 126.27c443.07,409.81 1051.22,706.61 1664.32,793.96 119.76,17.06 345.92,38.34 474.62,38.41 227.78,0.13 537.42,-40.55 752.12,-94.55 178.04,-44.77 352.19,-100.49 504.12,-171.5 193.48,-90.43 248.09,-116.16 441.53,-234.09 52.87,-32.23 344.9,-239.8 386.65,-297.74z"/>
  <path fill="#EBEEEF" d="M4820.63 5091.99l-406.23 -404.32c-37.56,18.4 -83.07,58.65 -121.12,85.9 -42.32,30.3 -80.66,54.65 -128.57,83.08 -702.47,416.99 -1619.04,353.32 -2229.28,-141.69 -277.57,-225.16 -538.4,-526.23 -678.58,-998.47 -135.62,-456.86 -89.28,-1017.68 111.94,-1411.55 79.34,-155.3 210.93,-376.54 340.73,-497.62 103.45,-96.5 90.93,-99.94 215.52,-199.74 77.36,-61.97 158.96,-118.4 252.59,-170.65 711.44,-396.99 1601.01,-332.96 2229.05,188.19 154.17,127.93 286.51,270.48 397.96,440.42 180.01,274.48 300.3,601.59 321.33,948.09l584.6 -0.38c-72.81,-1218.41 -948.86,-2134.71 -2016.58,-2360.45 -1921.87,-406.31 -3529.79,1361.92 -2995.99,3232.16 93.12,326.24 272.81,653.05 469.53,889.67 19.66,23.64 43.28,49.78 63.35,75.09 20.49,25.83 45.66,47.31 67.15,71.14 436.28,483.61 1169.63,821.94 1949.82,794.3 612.24,-21.7 1081.94,-227.89 1535.03,-581.95 3.86,-3.02 16.66,-12.09 18.65,-14.01 22.31,-21.52 8.79,-2.14 19.1,-27.19z"/>
  <path fill="#50B0B8" d="M4414.4 4687.67c-35.89,-42.86 -77.42,-78.34 -118.34,-119.27 -41.33,-41.33 -76.7,-76.7 -118.03,-118.03 -51.48,-51.48 -191.19,-204.06 -239.18,-234.3 -112.8,73.18 -207.37,138.61 -363.52,189.69 -737.46,241.22 -1502.76,-180.15 -1694.85,-905.58 -157.4,-594.39 106.88,-1198.28 623.94,-1492.27 252.36,-143.49 577.63,-209.27 907.66,-145 533.45,103.88 1005.52,566.99 1052.26,1151.03l661.64 -0.33c-21.02,-346.5 -141.32,-673.61 -321.33,-948.09 -111.45,-169.94 -243.8,-312.5 -397.96,-440.42 -628.04,-521.15 -1517.61,-585.17 -2229.05,-188.19 -93.63,52.25 -175.22,108.68 -252.59,170.65 -124.59,99.8 -112.06,103.24 -215.52,199.74 -129.8,121.08 -261.39,342.32 -340.73,497.62 -201.22,393.87 -247.56,954.69 -111.94,1411.55 140.18,472.24 401.01,773.32 678.58,998.47 610.23,495.02 1526.81,558.68 2229.28,141.69 47.9,-28.43 86.25,-52.79 128.57,-83.08 38.05,-27.24 83.56,-67.5 121.12,-85.9z"/>
  <path fill="#EBEEEF" d="M3938.85 4216.08c-18.24,-29.55 -345.27,-356.2 -376.71,-375.57 -82.81,36.99 -130.15,68.9 -232.58,91.39 -654.6,143.69 -1191.8,-525.77 -878.55,-1147.15 120.9,-239.82 435.24,-481.63 841.64,-411.41 321.46,55.54 592.3,316.83 642.72,638.81l528.95 1.82c-46.74,-584.03 -518.81,-1047.15 -1052.26,-1151.03 -330.02,-64.27 -655.29,1.51 -907.66,145 -517.07,293.99 -781.34,897.88 -623.94,1492.27 192.09,725.43 957.39,1146.8 1694.85,905.58 156.16,-51.08 250.73,-116.52 363.52,-189.69z"/>
  <path fill="#EFC30D" d="M6308.49 3013.46l-597.91 -0.22 -584.6 0.38 -661.64 0.33 -528.95 -1.82c-79.48,8.55 -550.43,2.65 -671.25,2.65 -115.85,0 -213.19,-20.33 -277.08,53.71 -79.59,92.24 -15.62,176.33 40.56,226.88 133.68,34.96 293.78,9.81 437.37,17.31l468.74 0.42 528.89 -1.15 662.25 0.43 584.36 0.2 599.26 0.55 32.56 0.05 1253.56 -0.19 545.38 0 0 -301.18 -545.38 0 390.72 -610.5 -1253.56 0 -377.02 591.54c-17.77,21.59 -12.58,17.15 -46.26,20.6z"/>
  <path fill="#EB222D" d="M3562.14 3840.5l-534.52 -545.13c-56.18,-50.55 -120.15,-134.65 -40.56,-226.88 63.89,-74.04 161.23,-53.71 277.08,-53.71 120.82,0 591.77,5.9 671.25,-2.65 -50.42,-321.98 -321.27,-583.26 -642.72,-638.81 -406.4,-70.22 -720.75,171.59 -841.64,411.41 -313.26,621.38 223.94,1290.84 878.55,1147.15 102.43,-22.48 149.77,-54.4 232.58,-91.39z"/>
  <path fill="#39789B" d="M5030.42 4886.45c78.73,70.09 143.65,142.75 214.98,214.09 43.8,43.8 174.97,187.45 216.53,209.52l82.61 -91.1c99.55,-124.29 132.51,-157.04 231.59,-305.66 133.53,-200.3 276.13,-467.44 354.37,-703.82 93.65,-282.92 129.45,-435.69 163.18,-732.22 4.33,-38.07 14.81,-124.4 14.81,-164.13l-599.26 -0.55c-14.8,331.19 -105.81,634.83 -222.98,903.86 -76.69,176.06 -251.64,461.27 -382.6,602.33 -49,52.77 -33.04,59.27 -73.22,67.68z"/>
  <path fill="#EBEEEF" d="M4630.78 4485.13l399.65 401.32c40.17,-8.42 24.22,-14.91 73.22,-67.68 130.97,-141.06 305.91,-426.27 382.6,-602.33 117.18,-269.02 208.19,-572.67 222.98,-903.86l-584.36 -0.2c-13.62,240.95 -82.82,469.25 -170.95,664.75 -60.42,134.03 -147.82,280.89 -235.75,390.99 -33.63,42.11 -81.36,87.33 -87.38,117z"/>
  <path fill="#57585B" d="M3562.14 3840.5c31.44,19.37 358.47,346.03 376.71,375.57 47.99,30.24 187.7,182.82 239.18,234.3 41.33,41.33 76.7,76.7 118.03,118.03 40.92,40.93 82.45,76.4 118.34,119.27l406.23 404.32c74.29,67 140.4,140.43 212.41,212.78 47.88,48.11 180.76,168.79 209.74,214.16 48.17,-33.99 69.56,-57.99 111.28,-99.71 36.18,-36.18 76.35,-72.49 107.86,-109.15 -41.56,-22.08 -172.73,-165.72 -216.53,-209.52 -71.33,-71.34 -136.25,-143.99 -214.98,-214.09l-399.65 -401.32 -479.33 -479.42c-19.89,-18.13 -353.87,-335.27 -359.21,-370.65 -40.4,-12.66 -62.15,-49.17 -89.7,-76.71 -29.12,-29.12 -52.23,-52.37 -81.21,-81.59 -38.44,-38.77 -135.23,-123.24 -156.36,-164.08 -143.58,-7.5 -303.68,17.65 -437.37,-17.31l534.52 545.13z"/>
  <path fill="#50B0B8" d="M4151.45 4005.71l479.33 479.42c6.02,-29.66 53.75,-74.89 87.38,-117 87.93,-110.1 175.34,-256.96 235.75,-390.99 88.13,-195.5 157.33,-423.8 170.95,-664.75l-662.25 -0.43c-22.63,228.09 -118.42,453.69 -250.1,631.97 -23.67,32.04 -33.8,51.44 -61.07,61.79z"/>
  <path fill="#F39B14" d="M7594.61 3312.99l-1253.56 0.19 113.96 154.47c38.61,51.52 76.71,101.5 114.01,154.61 36.19,51.54 76.32,101.84 115.08,153.54 72.69,96.94 41.89,74.43 202.33,74.43 363.58,-0 727.17,0 1090.76,0 -2.82,-33.89 -24.37,-51.72 -40.69,-73.27l-341.89 -463.97z"/>
  <path fill="#EBEEEF" d="M3792.24 3635.06c5.34,35.38 339.31,352.52 359.21,370.65 27.27,-10.35 37.4,-29.75 61.07,-61.79 131.68,-178.28 227.47,-403.88 250.1,-631.97l-528.89 1.15c-24.05,146.88 -85.18,219.94 -141.48,321.96z"/>
  <path fill="#EB222D" d="M3792.24 3635.06c56.3,-102.02 117.42,-175.08 141.48,-321.96l-468.74 -0.42c21.12,40.83 117.91,125.3 156.36,164.08 28.98,29.22 52.09,52.47 81.21,81.59 27.55,27.55 49.3,64.05 89.7,76.71z"/>
 </g>
</svg>
