<?xml version="1.0" encoding="UTF-8"?>
<!DOCTYPE svg PUBLIC "-//W3C//DTD SVG 1.1//EN" "http://www.w3.org/Graphics/SVG/1.1/DTD/svg11.dtd">
<!-- Creator: CorelDRAW 2018 (64-Bit Evaluation Version) -->
<svg xmlns="http://www.w3.org/2000/svg" xml:space="preserve" width="8.91505in" height="0.291449in" version="1.1" shape-rendering="geometricPrecision" text-rendering="geometricPrecision" image-rendering="optimizeQuality" fill-rule="evenodd" clip-rule="evenodd"
viewBox="0 0 9050.23 295.87"
 xmlns:xlink="http://www.w3.org/1999/xlink">
 <g id="Layer_x0020_1">
  <metadata id="CorelCorpID_0Corel-Layer"/>
  <path fill="#373435" fill-rule="nonzero" d="M190.74 183.32l54.73 16.81c-8.41,30.82 -22.41,53.69 -41.96,68.68 -19.55,14.92 -44.31,22.42 -74.35,22.42 -37.21,0 -67.77,-12.71 -91.74,-38.12 -23.92,-25.41 -35.9,-60.14 -35.9,-104.25 0,-46.59 12.05,-82.82 36.1,-108.62 24.04,-25.8 55.71,-38.7 94.94,-38.7 34.27,0 62.1,10.17 83.47,30.43 12.77,11.99 22.29,29.19 28.67,51.67l-55.91 13.29c-3.32,-14.46 -10.23,-25.93 -20.72,-34.34 -10.56,-8.41 -23.33,-12.57 -38.32,-12.57 -20.78,0 -37.66,7.43 -50.56,22.35 -12.97,14.86 -19.42,38.96 -19.42,72.33 0,35.31 6.38,60.53 19.09,75.52 12.77,15.05 29.32,22.55 49.72,22.55 15.05,0 28.02,-4.76 38.84,-14.34 10.82,-9.58 18.64,-24.56 23.32,-45.09z"/>
  <path id="1" fill="#373435" fill-rule="nonzero" d="M396.51 148.26c0,-28.54 4.3,-52.52 12.84,-71.94 6.32,-14.27 15.05,-27.11 26.06,-38.44 11.01,-11.33 23.07,-19.74 36.17,-25.28 17.46,-7.36 37.6,-11.08 60.4,-11.08 41.31,0 74.28,12.84 99.11,38.44 24.76,25.67 37.14,61.32 37.14,106.99 0,45.29 -12.31,80.73 -36.88,106.28 -24.56,25.61 -57.47,38.38 -98.58,38.38 -41.64,0 -74.81,-12.71 -99.37,-38.18 -24.56,-25.41 -36.88,-60.47 -36.88,-105.17zm58.25 -1.89c0,31.73 7.37,55.77 22.03,72.2 14.66,16.35 33.3,24.56 55.84,24.56 22.61,0 41.11,-8.15 55.65,-24.37 14.46,-16.29 21.7,-40.66 21.7,-73.18 0,-32.13 -7.04,-56.1 -21.18,-71.87 -14.07,-15.83 -32.77,-23.72 -56.17,-23.72 -23.33,0 -42.16,8.01 -56.43,23.98 -14.27,16.03 -21.44,40.13 -21.44,72.39z"/>
  <polygon id="2" fill="#373435" fill-rule="nonzero" points="826.56,286.53 826.56,6.61 881.42,6.61 996.63,194.2 996.63,6.61 1049.01,6.61 1049.01,286.53 992.39,286.53 878.95,102.52 878.95,286.53 "/>
  <path id="3" fill="#373435" fill-rule="nonzero" d="M1208.26 195.83l55.12 -5.48c3.33,18.44 9.97,31.93 20.07,40.59 10.1,8.67 23.72,12.97 40.85,12.97 18.11,0 31.8,-3.84 40.99,-11.53 9.19,-7.69 13.81,-16.68 13.81,-26.98 0,-6.65 -1.95,-12.25 -5.8,-16.94 -3.84,-4.62 -10.62,-8.66 -20.26,-12.05 -6.58,-2.35 -21.57,-6.38 -45.03,-12.25 -30.17,-7.56 -51.35,-16.81 -63.53,-27.82 -17.13,-15.44 -25.67,-34.28 -25.67,-56.49 0,-14.27 4.04,-27.69 12.05,-40.14 8.08,-12.45 19.68,-21.89 34.86,-28.41 15.18,-6.52 33.43,-9.78 54.93,-9.78 34.99,0 61.38,7.75 79.04,23.33 17.72,15.57 26.97,36.29 27.89,62.29l-56.69 1.95c-2.41,-14.46 -7.56,-24.83 -15.44,-31.15 -7.89,-6.32 -19.74,-9.51 -35.51,-9.51 -16.29,0 -29.06,3.39 -38.25,10.16 -5.93,4.36 -8.93,10.16 -8.93,17.46 0,6.65 2.8,12.32 8.41,17.01 7.1,6.06 24.37,12.32 51.8,18.83 27.43,6.45 47.7,13.23 60.79,20.14 13.17,6.97 23.46,16.42 30.89,28.47 7.43,12.05 11.14,26.91 11.14,44.57 0,16.03 -4.43,31.08 -13.36,45.09 -8.93,14.01 -21.5,24.43 -37.79,31.21 -16.29,6.84 -36.62,10.23 -60.93,10.23 -35.38,0 -62.55,-8.15 -81.51,-24.5 -18.96,-16.29 -30.24,-40.07 -33.95,-71.29z"/>
  <polygon id="4" fill="#373435" fill-rule="nonzero" points="1661.04,286.53 1661.04,53.91 1578.16,53.91 1578.16,6.61 1800.22,6.61 1800.22,53.91 1717.73,53.91 1717.73,286.53 "/>
  <path id="5" fill="#373435" fill-rule="nonzero" d="M1951.13 286.53l0 -279.93 119.05 0c29.91,0 51.67,2.54 65.23,7.56 13.62,5.02 24.43,13.94 32.58,26.78 8.15,12.9 12.25,27.56 12.25,44.11 0,21.05 -6.12,38.38 -18.44,52.06 -12.32,13.68 -30.69,22.29 -55.19,25.87 12.18,7.1 22.22,14.92 30.1,23.46 7.95,8.54 18.64,23.72 32.06,45.48l34.14 54.6 -67.57 0 -40.53 -61.12c-14.53,-21.7 -24.5,-35.38 -29.91,-41.05 -5.34,-5.6 -11.01,-9.51 -17.01,-11.6 -6.06,-2.08 -15.57,-3.13 -28.6,-3.13l-11.47 0 0 116.9 -56.69 0zm56.69 -161.47l41.83 0c27.11,0 43.98,-1.17 50.76,-3.45 6.71,-2.28 12.05,-6.25 15.83,-11.86 3.84,-5.6 5.73,-12.64 5.73,-21.05 0,-9.45 -2.54,-17.01 -7.56,-22.87 -5.02,-5.8 -12.12,-9.45 -21.24,-10.95 -4.62,-0.65 -18.37,-0.98 -41.25,-0.98l-44.11 0 0 71.15z"/>
  <path id="6" fill="#373435" fill-rule="nonzero" d="M2347.68 6.61l56.69 0 0 151.69c0,24.11 0.72,39.68 2.08,46.79 2.41,11.47 8.08,20.72 17.07,27.63 9.06,6.97 21.37,10.43 37.01,10.43 15.83,0 27.83,-3.26 35.9,-9.84 8.08,-6.58 12.9,-14.6 14.53,-24.17 1.63,-9.58 2.48,-25.42 2.48,-47.57l0 -154.95 56.69 0 0 147.19c0,33.62 -1.5,57.4 -4.56,71.29 -3.06,13.88 -8.66,25.61 -16.87,35.19 -8.15,9.58 -19.09,17.14 -32.78,22.81 -13.75,5.67 -31.6,8.54 -53.69,8.54 -26.65,0 -46.85,-3.07 -60.6,-9.25 -13.75,-6.19 -24.63,-14.21 -32.65,-24.11 -8.01,-9.9 -13.23,-20.2 -15.77,-31.08 -3.72,-16.03 -5.54,-39.75 -5.54,-71.09l0 -149.48z"/>
  <path id="7" fill="#373435" fill-rule="nonzero" d="M2923.29 183.32l54.73 16.81c-8.41,30.82 -22.41,53.69 -41.96,68.68 -19.55,14.92 -44.31,22.42 -74.35,22.42 -37.21,0 -67.77,-12.71 -91.74,-38.12 -23.92,-25.41 -35.9,-60.14 -35.9,-104.25 0,-46.59 12.05,-82.82 36.1,-108.62 24.04,-25.8 55.71,-38.7 94.94,-38.7 34.27,0 62.1,10.17 83.47,30.43 12.77,11.99 22.29,29.19 28.67,51.67l-55.91 13.29c-3.32,-14.46 -10.23,-25.93 -20.72,-34.34 -10.56,-8.41 -23.33,-12.57 -38.32,-12.57 -20.78,0 -37.66,7.43 -50.56,22.35 -12.97,14.86 -19.42,38.96 -19.42,72.33 0,35.31 6.38,60.53 19.09,75.52 12.77,15.05 29.32,22.55 49.72,22.55 15.05,0 28.02,-4.76 38.84,-14.34 10.82,-9.58 18.64,-24.56 23.32,-45.09z"/>
  <polygon id="8" fill="#373435" fill-rule="nonzero" points="3203.73,286.53 3203.73,53.91 3120.85,53.91 3120.85,6.61 3342.91,6.61 3342.91,53.91 3260.42,53.91 3260.42,286.53 "/>
  <polygon id="9" fill="#373435" fill-rule="nonzero" points="3491.86,286.53 3491.86,6.61 3548.55,6.61 3548.55,286.53 "/>
  <path id="10" fill="#373435" fill-rule="nonzero" d="M3704.93 148.26c0,-28.54 4.3,-52.52 12.84,-71.94 6.32,-14.27 15.05,-27.11 26.06,-38.44 11.01,-11.33 23.07,-19.74 36.17,-25.28 17.46,-7.36 37.6,-11.08 60.4,-11.08 41.31,0 74.28,12.84 99.11,38.44 24.76,25.67 37.14,61.32 37.14,106.99 0,45.29 -12.31,80.73 -36.88,106.28 -24.56,25.61 -57.47,38.38 -98.58,38.38 -41.64,0 -74.81,-12.71 -99.37,-38.18 -24.56,-25.41 -36.88,-60.47 -36.88,-105.17zm58.25 -1.89c0,31.73 7.37,55.77 22.03,72.2 14.66,16.35 33.3,24.56 55.84,24.56 22.61,0 41.11,-8.15 55.65,-24.37 14.46,-16.29 21.7,-40.66 21.7,-73.18 0,-32.13 -7.04,-56.1 -21.18,-71.87 -14.07,-15.83 -32.77,-23.72 -56.17,-23.72 -23.33,0 -42.16,8.01 -56.43,23.98 -14.27,16.03 -21.44,40.13 -21.44,72.39z"/>
  <polygon id="11" fill="#373435" fill-rule="nonzero" points="4134.98,286.53 4134.98,6.61 4189.84,6.61 4305.04,194.2 4305.04,6.61 4357.43,6.61 4357.43,286.53 4300.81,286.53 4187.36,102.52 4187.36,286.53 "/>
  <path id="12" fill="#373435" fill-rule="nonzero" d="M4887.63 252.58l-32.51 41.38c-15.9,-7.76 -31.21,-18.44 -45.87,-32.06 -11.27,10.17 -23.33,17.66 -36.03,22.48 -12.71,4.82 -27.82,7.23 -45.41,7.23 -34.8,0 -60.99,-9.84 -78.58,-29.45 -13.62,-15.12 -20.4,-32.58 -20.4,-52.32 0,-17.99 5.34,-34.14 16.09,-48.48 10.69,-14.33 26.71,-26.78 48.02,-37.34 -9.58,-11.33 -16.81,-22.15 -21.63,-32.45 -4.89,-10.29 -7.3,-20 -7.3,-29.19 0,-16.94 6.77,-31.34 20.33,-43.14 13.48,-11.79 32.84,-17.73 57.86,-17.73 24.11,0 43,6.19 56.62,18.5 13.62,12.38 20.4,27.43 20.4,45.29 0,11.34 -3.32,22.09 -10.03,32.25 -6.71,10.17 -20.2,21.7 -40.53,34.54l38.51 51.8c4.56,-8.08 8.47,-18.7 11.79,-31.73l48.61 10.88c-4.82,17.2 -9.06,29.84 -12.64,37.79 -3.52,7.95 -7.37,14.66 -11.47,20 6,5.6 13.75,11.73 23.26,18.44 9.51,6.71 16.48,11.14 20.91,13.29zm-146.02 -152.47l14.4 -11.14c10.62,-8.27 15.9,-16.48 15.9,-24.63 0,-6.91 -2.54,-12.77 -7.69,-17.59 -5.08,-4.89 -11.99,-7.3 -20.72,-7.3 -8.47,0 -15.12,2.15 -19.94,6.38 -4.76,4.3 -7.17,9.26 -7.17,14.86 0,6.65 4.04,14.66 12.12,24.11l13.1 15.31zm-20.98 58.38c-12.25,6.25 -21.43,13.81 -27.56,22.61 -6.06,8.8 -9.12,17.79 -9.12,26.91 0,11.6 3.78,21.11 11.33,28.41 7.49,7.36 17.59,11.01 30.3,11.01 8.34,0 16.42,-1.63 24.11,-4.95 7.75,-3.33 16.16,-8.8 25.28,-16.49l-54.34 -67.5z"/>
  <path id="13" fill="#373435" fill-rule="nonzero" d="M5145.33 286.53l0 -279.93 119.05 0c29.91,0 51.67,2.54 65.23,7.56 13.62,5.02 24.43,13.94 32.58,26.78 8.15,12.9 12.25,27.56 12.25,44.11 0,21.05 -6.12,38.38 -18.44,52.06 -12.32,13.68 -30.69,22.29 -55.19,25.87 12.18,7.1 22.22,14.92 30.1,23.46 7.95,8.54 18.64,23.72 32.06,45.48l34.14 54.6 -67.57 0 -40.53 -61.12c-14.53,-21.7 -24.5,-35.38 -29.91,-41.05 -5.34,-5.6 -11.01,-9.51 -17.01,-11.6 -6.06,-2.08 -15.57,-3.13 -28.6,-3.13l-11.47 0 0 116.9 -56.69 0zm56.69 -161.47l41.83 0c27.11,0 43.98,-1.17 50.76,-3.45 6.71,-2.28 12.05,-6.25 15.83,-11.86 3.84,-5.6 5.73,-12.64 5.73,-21.05 0,-9.45 -2.54,-17.01 -7.56,-22.87 -5.02,-5.8 -12.12,-9.45 -21.24,-10.95 -4.62,-0.65 -18.37,-0.98 -41.25,-0.98l-44.11 0 0 71.15z"/>
  <polygon id="14" fill="#373435" fill-rule="nonzero" points="5541.88,286.53 5541.88,6.61 5749.08,6.61 5749.08,53.91 5598.57,53.91 5598.57,116.07 5738.53,116.07 5738.53,163.38 5598.57,163.38 5598.57,239.23 5754.56,239.23 5754.56,286.53 "/>
  <polygon id="15" fill="#373435" fill-rule="nonzero" points="5916.87,286.53 5916.87,6.61 5971.73,6.61 6086.93,194.2 6086.93,6.61 6139.32,6.61 6139.32,286.53 6082.7,286.53 5969.26,102.52 5969.26,286.53 "/>
  <path id="16" fill="#373435" fill-rule="nonzero" d="M6301.69 148.26c0,-28.54 4.3,-52.52 12.84,-71.94 6.32,-14.27 15.05,-27.11 26.06,-38.44 11.01,-11.33 23.07,-19.74 36.17,-25.28 17.46,-7.36 37.6,-11.08 60.4,-11.08 41.31,0 74.28,12.84 99.11,38.44 24.76,25.67 37.14,61.32 37.14,106.99 0,45.29 -12.31,80.73 -36.88,106.28 -24.56,25.61 -57.47,38.38 -98.58,38.38 -41.64,0 -74.81,-12.71 -99.37,-38.18 -24.56,-25.41 -36.88,-60.47 -36.88,-105.17zm58.25 -1.89c0,31.73 7.37,55.77 22.03,72.2 14.66,16.35 33.3,24.56 55.84,24.56 22.61,0 41.11,-8.15 55.65,-24.37 14.46,-16.29 21.7,-40.66 21.7,-73.18 0,-32.13 -7.04,-56.1 -21.18,-71.87 -14.07,-15.83 -32.77,-23.72 -56.17,-23.72 -23.33,0 -42.16,8.01 -56.43,23.98 -14.27,16.03 -21.44,40.13 -21.44,72.39z"/>
  <polygon id="17" fill="#373435" fill-rule="nonzero" points="6803.35,286.53 6703.2,6.61 6764.45,6.61 6835.54,213.81 6903.76,6.61 6963.97,6.61 6864.4,286.53 "/>
  <path id="18" fill="#373435" fill-rule="nonzero" d="M7329.9 286.53l-61.05 0 -24.18 -63.73 -112.27 0 -23.26 63.73 -59.95 0 108.69 -279.93 59.88 0 112.14 279.93zm-103.61 -111.03l-38.9 -103.6 -37.79 103.6 76.69 0z"/>
  <polygon id="19" fill="#373435" fill-rule="nonzero" points="7508.23,286.53 7508.23,53.91 7425.35,53.91 7425.35,6.61 7647.41,6.61 7647.41,53.91 7564.92,53.91 7564.92,286.53 "/>
  <polygon id="20" fill="#373435" fill-rule="nonzero" points="7796.36,286.53 7796.36,6.61 7853.05,6.61 7853.05,286.53 "/>
  <path id="21" fill="#373435" fill-rule="nonzero" d="M8009.43 148.26c0,-28.54 4.3,-52.52 12.84,-71.94 6.32,-14.27 15.05,-27.11 26.06,-38.44 11.01,-11.33 23.07,-19.74 36.17,-25.28 17.46,-7.36 37.6,-11.08 60.4,-11.08 41.31,0 74.28,12.84 99.11,38.44 24.76,25.67 37.14,61.32 37.14,106.99 0,45.29 -12.31,80.73 -36.88,106.28 -24.56,25.61 -57.47,38.38 -98.58,38.38 -41.64,0 -74.81,-12.71 -99.37,-38.18 -24.56,-25.41 -36.88,-60.47 -36.88,-105.17zm58.25 -1.89c0,31.73 7.37,55.77 22.03,72.2 14.66,16.35 33.3,24.56 55.84,24.56 22.61,0 41.11,-8.15 55.65,-24.37 14.46,-16.29 21.7,-40.66 21.7,-73.18 0,-32.13 -7.04,-56.1 -21.18,-71.87 -14.07,-15.83 -32.77,-23.72 -56.17,-23.72 -23.33,0 -42.16,8.01 -56.43,23.98 -14.27,16.03 -21.44,40.13 -21.44,72.39z"/>
  <polygon id="22" fill="#373435" fill-rule="nonzero" points="8439.48,286.53 8439.48,6.61 8494.34,6.61 8609.54,194.2 8609.54,6.61 8661.93,6.61 8661.93,286.53 8605.31,286.53 8491.86,102.52 8491.86,286.53 "/>
  <path id="23" fill="#373435" fill-rule="nonzero" d="M8821.17 195.83l55.12 -5.48c3.33,18.44 9.97,31.93 20.07,40.59 10.1,8.67 23.72,12.97 40.85,12.97 18.11,0 31.8,-3.84 40.99,-11.53 9.19,-7.69 13.81,-16.68 13.81,-26.98 0,-6.65 -1.95,-12.25 -5.8,-16.94 -3.84,-4.62 -10.62,-8.66 -20.26,-12.05 -6.58,-2.35 -21.57,-6.38 -45.03,-12.25 -30.17,-7.56 -51.35,-16.81 -63.53,-27.82 -17.13,-15.44 -25.67,-34.28 -25.67,-56.49 0,-14.27 4.04,-27.69 12.05,-40.14 8.08,-12.45 19.68,-21.89 34.86,-28.41 15.18,-6.52 33.43,-9.78 54.93,-9.78 34.99,0 61.38,7.75 79.04,23.33 17.72,15.57 26.97,36.29 27.89,62.29l-56.69 1.95c-2.41,-14.46 -7.56,-24.83 -15.44,-31.15 -7.89,-6.32 -19.74,-9.51 -35.51,-9.51 -16.29,0 -29.06,3.39 -38.25,10.16 -5.93,4.36 -8.93,10.16 -8.93,17.46 0,6.65 2.8,12.32 8.41,17.01 7.1,6.06 24.37,12.32 51.8,18.83 27.43,6.45 47.7,13.23 60.79,20.14 13.17,6.97 23.46,16.42 30.89,28.47 7.43,12.05 11.14,26.91 11.14,44.57 0,16.03 -4.43,31.08 -13.36,45.09 -8.93,14.01 -21.5,24.43 -37.79,31.21 -16.29,6.84 -36.62,10.23 -60.93,10.23 -35.38,0 -62.55,-8.15 -81.51,-24.5 -18.96,-16.29 -30.24,-40.07 -33.95,-71.29z"/>
  <path id="24" fill="none" fill-rule="nonzero" stroke="#373435" stroke-width="3.05" stroke-miterlimit="2.61313" d="M190.74 183.32l54.73 16.81c-8.41,30.82 -22.41,53.69 -41.96,68.68 -19.55,14.92 -44.31,22.42 -74.35,22.42 -37.21,0 -67.77,-12.71 -91.74,-38.12 -23.92,-25.41 -35.9,-60.14 -35.9,-104.25 0,-46.59 12.05,-82.82 36.1,-108.62 24.04,-25.8 55.71,-38.7 94.94,-38.7 34.27,0 62.1,10.17 83.47,30.43 12.77,11.99 22.29,29.19 28.67,51.67l-55.91 13.29c-3.32,-14.46 -10.23,-25.93 -20.72,-34.34 -10.56,-8.41 -23.33,-12.57 -38.32,-12.57 -20.78,0 -37.66,7.43 -50.56,22.35 -12.97,14.86 -19.42,38.96 -19.42,72.33 0,35.31 6.38,60.53 19.09,75.52 12.77,15.05 29.32,22.55 49.72,22.55 15.05,0 28.02,-4.76 38.84,-14.34 10.82,-9.58 18.64,-24.56 23.32,-45.09z"/>
  <path id="25" fill="none" fill-rule="nonzero" stroke="#373435" stroke-width="3.05" stroke-miterlimit="2.61313" d="M396.51 148.26c0,-28.54 4.3,-52.52 12.84,-71.94 6.32,-14.27 15.05,-27.11 26.06,-38.44 11.01,-11.33 23.07,-19.74 36.17,-25.28 17.46,-7.36 37.6,-11.08 60.4,-11.08 41.31,0 74.28,12.84 99.11,38.44 24.76,25.67 37.14,61.32 37.14,106.99 0,45.29 -12.31,80.73 -36.88,106.28 -24.56,25.61 -57.47,38.38 -98.58,38.38 -41.64,0 -74.81,-12.71 -99.37,-38.18 -24.56,-25.41 -36.88,-60.47 -36.88,-105.17zm58.25 -1.89c0,31.73 7.37,55.77 22.03,72.2 14.66,16.35 33.3,24.56 55.84,24.56 22.61,0 41.11,-8.15 55.65,-24.37 14.46,-16.29 21.7,-40.66 21.7,-73.18 0,-32.13 -7.04,-56.1 -21.18,-71.87 -14.07,-15.83 -32.77,-23.72 -56.17,-23.72 -23.33,0 -42.16,8.01 -56.43,23.98 -14.27,16.03 -21.44,40.13 -21.44,72.39z"/>
  <polygon id="26" fill="none" fill-rule="nonzero" stroke="#373435" stroke-width="3.05" stroke-miterlimit="2.61313" points="826.56,286.53 826.56,6.61 881.42,6.61 996.63,194.2 996.63,6.61 1049.01,6.61 1049.01,286.53 992.39,286.53 878.95,102.52 878.95,286.53 "/>
  <path id="27" fill="none" fill-rule="nonzero" stroke="#373435" stroke-width="3.05" stroke-miterlimit="2.61313" d="M1208.26 195.83l55.12 -5.48c3.33,18.44 9.97,31.93 20.07,40.59 10.1,8.67 23.72,12.97 40.85,12.97 18.11,0 31.8,-3.84 40.99,-11.53 9.19,-7.69 13.81,-16.68 13.81,-26.98 0,-6.65 -1.95,-12.25 -5.8,-16.94 -3.84,-4.62 -10.62,-8.66 -20.26,-12.05 -6.58,-2.35 -21.57,-6.38 -45.03,-12.25 -30.17,-7.56 -51.35,-16.81 -63.53,-27.82 -17.13,-15.44 -25.67,-34.28 -25.67,-56.49 0,-14.27 4.04,-27.69 12.05,-40.14 8.08,-12.45 19.68,-21.89 34.86,-28.41 15.18,-6.52 33.43,-9.78 54.93,-9.78 34.99,0 61.38,7.75 79.04,23.33 17.72,15.57 26.97,36.29 27.89,62.29l-56.69 1.95c-2.41,-14.46 -7.56,-24.83 -15.44,-31.15 -7.89,-6.32 -19.74,-9.51 -35.51,-9.51 -16.29,0 -29.06,3.39 -38.25,10.16 -5.93,4.36 -8.93,10.16 -8.93,17.46 0,6.65 2.8,12.32 8.41,17.01 7.1,6.06 24.37,12.32 51.8,18.83 27.43,6.45 47.7,13.23 60.79,20.14 13.17,6.97 23.46,16.42 30.89,28.47 7.43,12.05 11.14,26.91 11.14,44.57 0,16.03 -4.43,31.08 -13.36,45.09 -8.93,14.01 -21.5,24.43 -37.79,31.21 -16.29,6.84 -36.62,10.23 -60.93,10.23 -35.38,0 -62.55,-8.15 -81.51,-24.5 -18.96,-16.29 -30.24,-40.07 -33.95,-71.29z"/>
  <polygon id="28" fill="none" fill-rule="nonzero" stroke="#373435" stroke-width="3.05" stroke-miterlimit="2.61313" points="1661.04,286.53 1661.04,53.91 1578.16,53.91 1578.16,6.61 1800.22,6.61 1800.22,53.91 1717.73,53.91 1717.73,286.53 "/>
  <path id="29" fill="none" fill-rule="nonzero" stroke="#373435" stroke-width="3.05" stroke-miterlimit="2.61313" d="M1951.13 286.53l0 -279.93 119.05 0c29.91,0 51.67,2.54 65.23,7.56 13.62,5.02 24.43,13.94 32.58,26.78 8.15,12.9 12.25,27.56 12.25,44.11 0,21.05 -6.12,38.38 -18.44,52.06 -12.32,13.68 -30.69,22.29 -55.19,25.87 12.18,7.1 22.22,14.92 30.1,23.46 7.95,8.54 18.64,23.72 32.06,45.48l34.14 54.6 -67.57 0 -40.53 -61.12c-14.53,-21.7 -24.5,-35.38 -29.91,-41.05 -5.34,-5.6 -11.01,-9.51 -17.01,-11.6 -6.06,-2.08 -15.57,-3.13 -28.6,-3.13l-11.47 0 0 116.9 -56.69 0zm56.69 -161.47l41.83 0c27.11,0 43.98,-1.17 50.76,-3.45 6.71,-2.28 12.05,-6.25 15.83,-11.86 3.84,-5.6 5.73,-12.64 5.73,-21.05 0,-9.45 -2.54,-17.01 -7.56,-22.87 -5.02,-5.8 -12.12,-9.45 -21.24,-10.95 -4.62,-0.65 -18.37,-0.98 -41.25,-0.98l-44.11 0 0 71.15z"/>
  <path id="30" fill="none" fill-rule="nonzero" stroke="#373435" stroke-width="3.05" stroke-miterlimit="2.61313" d="M2347.68 6.61l56.69 0 0 151.69c0,24.11 0.72,39.68 2.08,46.79 2.41,11.47 8.08,20.72 17.07,27.63 9.06,6.97 21.37,10.43 37.01,10.43 15.83,0 27.83,-3.26 35.9,-9.84 8.08,-6.58 12.9,-14.6 14.53,-24.17 1.63,-9.58 2.48,-25.42 2.48,-47.57l0 -154.95 56.69 0 0 147.19c0,33.62 -1.5,57.4 -4.56,71.29 -3.06,13.88 -8.66,25.61 -16.87,35.19 -8.15,9.58 -19.09,17.14 -32.78,22.81 -13.75,5.67 -31.6,8.54 -53.69,8.54 -26.65,0 -46.85,-3.07 -60.6,-9.25 -13.75,-6.19 -24.63,-14.21 -32.65,-24.11 -8.01,-9.9 -13.23,-20.2 -15.77,-31.08 -3.72,-16.03 -5.54,-39.75 -5.54,-71.09l0 -149.48z"/>
  <path id="31" fill="none" fill-rule="nonzero" stroke="#373435" stroke-width="3.05" stroke-miterlimit="2.61313" d="M2923.29 183.32l54.73 16.81c-8.41,30.82 -22.41,53.69 -41.96,68.68 -19.55,14.92 -44.31,22.42 -74.35,22.42 -37.21,0 -67.77,-12.71 -91.74,-38.12 -23.92,-25.41 -35.9,-60.14 -35.9,-104.25 0,-46.59 12.05,-82.82 36.1,-108.62 24.04,-25.8 55.71,-38.7 94.94,-38.7 34.27,0 62.1,10.17 83.47,30.43 12.77,11.99 22.29,29.19 28.67,51.67l-55.91 13.29c-3.32,-14.46 -10.23,-25.93 -20.72,-34.34 -10.56,-8.41 -23.33,-12.57 -38.32,-12.57 -20.78,0 -37.66,7.43 -50.56,22.35 -12.97,14.86 -19.42,38.96 -19.42,72.33 0,35.31 6.38,60.53 19.09,75.52 12.77,15.05 29.32,22.55 49.72,22.55 15.05,0 28.02,-4.76 38.84,-14.34 10.82,-9.58 18.64,-24.56 23.32,-45.09z"/>
  <polygon id="32" fill="none" fill-rule="nonzero" stroke="#373435" stroke-width="3.05" stroke-miterlimit="2.61313" points="3203.73,286.53 3203.73,53.91 3120.85,53.91 3120.85,6.61 3342.91,6.61 3342.91,53.91 3260.42,53.91 3260.42,286.53 "/>
  <polygon id="33" fill="none" fill-rule="nonzero" stroke="#373435" stroke-width="3.05" stroke-miterlimit="2.61313" points="3491.86,286.53 3491.86,6.61 3548.55,6.61 3548.55,286.53 "/>
  <path id="34" fill="none" fill-rule="nonzero" stroke="#373435" stroke-width="3.05" stroke-miterlimit="2.61313" d="M3704.93 148.26c0,-28.54 4.3,-52.52 12.84,-71.94 6.32,-14.27 15.05,-27.11 26.06,-38.44 11.01,-11.33 23.07,-19.74 36.17,-25.28 17.46,-7.36 37.6,-11.08 60.4,-11.08 41.31,0 74.28,12.84 99.11,38.44 24.76,25.67 37.14,61.32 37.14,106.99 0,45.29 -12.31,80.73 -36.88,106.28 -24.56,25.61 -57.47,38.38 -98.58,38.38 -41.64,0 -74.81,-12.71 -99.37,-38.18 -24.56,-25.41 -36.88,-60.47 -36.88,-105.17zm58.25 -1.89c0,31.73 7.37,55.77 22.03,72.2 14.66,16.35 33.3,24.56 55.84,24.56 22.61,0 41.11,-8.15 55.65,-24.37 14.46,-16.29 21.7,-40.66 21.7,-73.18 0,-32.13 -7.04,-56.1 -21.18,-71.87 -14.07,-15.83 -32.77,-23.72 -56.17,-23.72 -23.33,0 -42.16,8.01 -56.43,23.98 -14.27,16.03 -21.44,40.13 -21.44,72.39z"/>
  <polygon id="35" fill="none" fill-rule="nonzero" stroke="#373435" stroke-width="3.05" stroke-miterlimit="2.61313" points="4134.98,286.53 4134.98,6.61 4189.84,6.61 4305.04,194.2 4305.04,6.61 4357.43,6.61 4357.43,286.53 4300.81,286.53 4187.36,102.52 4187.36,286.53 "/>
  <path id="36" fill="none" fill-rule="nonzero" stroke="#373435" stroke-width="3.05" stroke-miterlimit="2.61313" d="M4887.63 252.58l-32.51 41.38c-15.9,-7.76 -31.21,-18.44 -45.87,-32.06 -11.27,10.17 -23.33,17.66 -36.03,22.48 -12.71,4.82 -27.82,7.23 -45.41,7.23 -34.8,0 -60.99,-9.84 -78.58,-29.45 -13.62,-15.12 -20.4,-32.58 -20.4,-52.32 0,-17.99 5.34,-34.14 16.09,-48.48 10.69,-14.33 26.71,-26.78 48.02,-37.34 -9.58,-11.33 -16.81,-22.15 -21.63,-32.45 -4.89,-10.29 -7.3,-20 -7.3,-29.19 0,-16.94 6.77,-31.34 20.33,-43.14 13.48,-11.79 32.84,-17.73 57.86,-17.73 24.11,0 43,6.19 56.62,18.5 13.62,12.38 20.4,27.43 20.4,45.29 0,11.34 -3.32,22.09 -10.03,32.25 -6.71,10.17 -20.2,21.7 -40.53,34.54l38.51 51.8c4.56,-8.08 8.47,-18.7 11.79,-31.73l48.61 10.88c-4.82,17.2 -9.06,29.84 -12.64,37.79 -3.52,7.95 -7.37,14.66 -11.47,20 6,5.6 13.75,11.73 23.26,18.44 9.51,6.71 16.48,11.14 20.91,13.29zm-146.02 -152.47l14.4 -11.14c10.62,-8.27 15.9,-16.48 15.9,-24.63 0,-6.91 -2.54,-12.77 -7.69,-17.59 -5.08,-4.89 -11.99,-7.3 -20.72,-7.3 -8.47,0 -15.12,2.15 -19.94,6.38 -4.76,4.3 -7.17,9.26 -7.17,14.86 0,6.65 4.04,14.66 12.12,24.11l13.1 15.31zm-20.98 58.38c-12.25,6.25 -21.43,13.81 -27.56,22.61 -6.06,8.8 -9.12,17.79 -9.12,26.91 0,11.6 3.78,21.11 11.33,28.41 7.49,7.36 17.59,11.01 30.3,11.01 8.34,0 16.42,-1.63 24.11,-4.95 7.75,-3.33 16.16,-8.8 25.28,-16.49l-54.34 -67.5z"/>
  <path id="37" fill="none" fill-rule="nonzero" stroke="#373435" stroke-width="3.05" stroke-miterlimit="2.61313" d="M5145.33 286.53l0 -279.93 119.05 0c29.91,0 51.67,2.54 65.23,7.56 13.62,5.02 24.43,13.94 32.58,26.78 8.15,12.9 12.25,27.56 12.25,44.11 0,21.05 -6.12,38.38 -18.44,52.06 -12.32,13.68 -30.69,22.29 -55.19,25.87 12.18,7.1 22.22,14.92 30.1,23.46 7.95,8.54 18.64,23.72 32.06,45.48l34.14 54.6 -67.57 0 -40.53 -61.12c-14.53,-21.7 -24.5,-35.38 -29.91,-41.05 -5.34,-5.6 -11.01,-9.51 -17.01,-11.6 -6.06,-2.08 -15.57,-3.13 -28.6,-3.13l-11.47 0 0 116.9 -56.69 0zm56.69 -161.47l41.83 0c27.11,0 43.98,-1.17 50.76,-3.45 6.71,-2.28 12.05,-6.25 15.83,-11.86 3.84,-5.6 5.73,-12.64 5.73,-21.05 0,-9.45 -2.54,-17.01 -7.56,-22.87 -5.02,-5.8 -12.12,-9.45 -21.24,-10.95 -4.62,-0.65 -18.37,-0.98 -41.25,-0.98l-44.11 0 0 71.15z"/>
  <polygon id="38" fill="none" fill-rule="nonzero" stroke="#373435" stroke-width="3.05" stroke-miterlimit="2.61313" points="5541.88,286.53 5541.88,6.61 5749.08,6.61 5749.08,53.91 5598.57,53.91 5598.57,116.07 5738.53,116.07 5738.53,163.38 5598.57,163.38 5598.57,239.23 5754.56,239.23 5754.56,286.53 "/>
  <polygon id="39" fill="none" fill-rule="nonzero" stroke="#373435" stroke-width="3.05" stroke-miterlimit="2.61313" points="5916.87,286.53 5916.87,6.61 5971.73,6.61 6086.93,194.2 6086.93,6.61 6139.32,6.61 6139.32,286.53 6082.7,286.53 5969.26,102.52 5969.26,286.53 "/>
  <path id="40" fill="none" fill-rule="nonzero" stroke="#373435" stroke-width="3.05" stroke-miterlimit="2.61313" d="M6301.69 148.26c0,-28.54 4.3,-52.52 12.84,-71.94 6.32,-14.27 15.05,-27.11 26.06,-38.44 11.01,-11.33 23.07,-19.74 36.17,-25.28 17.46,-7.36 37.6,-11.08 60.4,-11.08 41.31,0 74.28,12.84 99.11,38.44 24.76,25.67 37.14,61.32 37.14,106.99 0,45.29 -12.31,80.73 -36.88,106.28 -24.56,25.61 -57.47,38.38 -98.58,38.38 -41.64,0 -74.81,-12.71 -99.37,-38.18 -24.56,-25.41 -36.88,-60.47 -36.88,-105.17zm58.25 -1.89c0,31.73 7.37,55.77 22.03,72.2 14.66,16.35 33.3,24.56 55.84,24.56 22.61,0 41.11,-8.15 55.65,-24.37 14.46,-16.29 21.7,-40.66 21.7,-73.18 0,-32.13 -7.04,-56.1 -21.18,-71.87 -14.07,-15.83 -32.77,-23.72 -56.17,-23.72 -23.33,0 -42.16,8.01 -56.43,23.98 -14.27,16.03 -21.44,40.13 -21.44,72.39z"/>
  <polygon id="41" fill="none" fill-rule="nonzero" stroke="#373435" stroke-width="3.05" stroke-miterlimit="2.61313" points="6803.35,286.53 6703.2,6.61 6764.45,6.61 6835.54,213.81 6903.76,6.61 6963.97,6.61 6864.4,286.53 "/>
  <path id="42" fill="none" fill-rule="nonzero" stroke="#373435" stroke-width="3.05" stroke-miterlimit="2.61313" d="M7329.9 286.53l-61.05 0 -24.18 -63.73 -112.27 0 -23.26 63.73 -59.95 0 108.69 -279.93 59.88 0 112.14 279.93zm-103.61 -111.03l-38.9 -103.6 -37.79 103.6 76.69 0z"/>
  <polygon id="43" fill="none" fill-rule="nonzero" stroke="#373435" stroke-width="3.05" stroke-miterlimit="2.61313" points="7508.23,286.53 7508.23,53.91 7425.35,53.91 7425.35,6.61 7647.41,6.61 7647.41,53.91 7564.92,53.91 7564.92,286.53 "/>
  <polygon id="44" fill="none" fill-rule="nonzero" stroke="#373435" stroke-width="3.05" stroke-miterlimit="2.61313" points="7796.36,286.53 7796.36,6.61 7853.05,6.61 7853.05,286.53 "/>
  <path id="45" fill="none" fill-rule="nonzero" stroke="#373435" stroke-width="3.05" stroke-miterlimit="2.61313" d="M8009.43 148.26c0,-28.54 4.3,-52.52 12.84,-71.94 6.32,-14.27 15.05,-27.11 26.06,-38.44 11.01,-11.33 23.07,-19.74 36.17,-25.28 17.46,-7.36 37.6,-11.08 60.4,-11.08 41.31,0 74.28,12.84 99.11,38.44 24.76,25.67 37.14,61.32 37.14,106.99 0,45.29 -12.31,80.73 -36.88,106.28 -24.56,25.61 -57.47,38.38 -98.58,38.38 -41.64,0 -74.81,-12.71 -99.37,-38.18 -24.56,-25.41 -36.88,-60.47 -36.88,-105.17zm58.25 -1.89c0,31.73 7.37,55.77 22.03,72.2 14.66,16.35 33.3,24.56 55.84,24.56 22.61,0 41.11,-8.15 55.65,-24.37 14.46,-16.29 21.7,-40.66 21.7,-73.18 0,-32.13 -7.04,-56.1 -21.18,-71.87 -14.07,-15.83 -32.77,-23.72 -56.17,-23.72 -23.33,0 -42.16,8.01 -56.43,23.98 -14.27,16.03 -21.44,40.13 -21.44,72.39z"/>
  <polygon id="46" fill="none" fill-rule="nonzero" stroke="#373435" stroke-width="3.05" stroke-miterlimit="2.61313" points="8439.48,286.53 8439.48,6.61 8494.34,6.61 8609.54,194.2 8609.54,6.61 8661.93,6.61 8661.93,286.53 8605.31,286.53 8491.86,102.52 8491.86,286.53 "/>
  <path id="47" fill="none" fill-rule="nonzero" stroke="#373435" stroke-width="3.05" stroke-miterlimit="2.61313" d="M8821.17 195.83l55.12 -5.48c3.33,18.44 9.97,31.93 20.07,40.59 10.1,8.67 23.72,12.97 40.85,12.97 18.11,0 31.8,-3.84 40.99,-11.53 9.19,-7.69 13.81,-16.68 13.81,-26.98 0,-6.65 -1.95,-12.25 -5.8,-16.94 -3.84,-4.62 -10.62,-8.66 -20.26,-12.05 -6.58,-2.35 -21.57,-6.38 -45.03,-12.25 -30.17,-7.56 -51.35,-16.81 -63.53,-27.82 -17.13,-15.44 -25.67,-34.28 -25.67,-56.49 0,-14.27 4.04,-27.69 12.05,-40.14 8.08,-12.45 19.68,-21.89 34.86,-28.41 15.18,-6.52 33.43,-9.78 54.93,-9.78 34.99,0 61.38,7.75 79.04,23.33 17.72,15.57 26.97,36.29 27.89,62.29l-56.69 1.95c-2.41,-14.46 -7.56,-24.83 -15.44,-31.15 -7.89,-6.32 -19.74,-9.51 -35.51,-9.51 -16.29,0 -29.06,3.39 -38.25,10.16 -5.93,4.36 -8.93,10.16 -8.93,17.46 0,6.65 2.8,12.32 8.41,17.01 7.1,6.06 24.37,12.32 51.8,18.83 27.43,6.45 47.7,13.23 60.79,20.14 13.17,6.97 23.46,16.42 30.89,28.47 7.43,12.05 11.14,26.91 11.14,44.57 0,16.03 -4.43,31.08 -13.36,45.09 -8.93,14.01 -21.5,24.43 -37.79,31.21 -16.29,6.84 -36.62,10.23 -60.93,10.23 -35.38,0 -62.55,-8.15 -81.51,-24.5 -18.96,-16.29 -30.24,-40.07 -33.95,-71.29z"/>
 </g>
</svg>
