<?xml version="1.0" encoding="UTF-8"?>
<!DOCTYPE svg PUBLIC "-//W3C//DTD SVG 1.1//EN" "http://www.w3.org/Graphics/SVG/1.1/DTD/svg11.dtd">
<!-- Creator: CorelDRAW 2018 (64-Bit Evaluation Version) -->
<svg xmlns="http://www.w3.org/2000/svg" xml:space="preserve" width="8.53493in" height="4.54323in" version="1.1" shape-rendering="geometricPrecision" text-rendering="geometricPrecision" image-rendering="optimizeQuality" fill-rule="evenodd" clip-rule="evenodd"
viewBox="0 0 8494.73 4521.84"
 xmlns:xlink="http://www.w3.org/1999/xlink">
 <defs>
    <linearGradient id="id0" gradientUnits="userSpaceOnUse" x1="5036.95" y1="1554.94" x2="4194.65" y2="1555.26">
     <stop offset="0" stop-opacity="1" stop-color="#09143B"/>
     <stop offset="0.568627" stop-opacity="1" stop-color="#3C3C79"/>
     <stop offset="1" stop-opacity="1" stop-color="#303057"/>
    </linearGradient>
    <linearGradient id="id1" gradientUnits="userSpaceOnUse" x1="5101.95" y1="1572.1" x2="5417.79" y2="1766.32">
     <stop offset="0" stop-opacity="1" stop-color="#1E9CCB"/>
     <stop offset="1" stop-opacity="1" stop-color="#257DA8"/>
    </linearGradient>
    <linearGradient id="id2" gradientUnits="userSpaceOnUse" x1="4119.41" y1="697.79" x2="4098.8" y2="2060.13">
     <stop offset="0" stop-opacity="1" stop-color="#F26836"/>
     <stop offset="0.470588" stop-opacity="1" stop-color="#ED3237"/>
     <stop offset="1" stop-opacity="1" stop-color="#F28937"/>
    </linearGradient>
 </defs>
 <g id="Layer_x0020_1">
  <metadata id="CorelCorpID_0Corel-Layer"/>
  <path fill="#373435" fill-rule="nonzero" d="M974.28 3257.12l1509.59 0c-4.78,353.79 -124.9,648.42 -360.37,883.88 -235.46,235.46 -526.5,353.19 -873.12,353.19 -339.44,0 -628.09,-120.12 -865.95,-360.37 -237.85,-240.24 -356.78,-532.48 -356.78,-876.71 0,-349.01 118.33,-644.23 354.99,-885.67 236.66,-241.44 524.71,-362.16 864.16,-362.16 224.7,0 432.68,57.97 623.91,173.91 191.24,115.94 340.64,273.11 448.21,471.52l-405.19 0c-200.8,-217.53 -418.33,-326.3 -652.6,-326.3 -243.83,0 -451.8,90.84 -623.92,272.51 -172.11,181.68 -258.17,400.4 -258.17,656.19 0,248.61 87.25,463.75 261.76,645.43 174.5,181.68 382.47,272.51 623.91,272.51 207.97,0 396.82,-71.72 566.54,-215.14 105.18,-88.45 191.24,-216.34 258.17,-383.67l-1115.16 0 0 -319.13z"/>
  <path id="1" fill="none" fill-rule="nonzero" stroke="#373435" stroke-width="55.29" stroke-miterlimit="2.61313" d="M974.28 3257.12l1509.59 0c-4.78,353.79 -124.9,648.42 -360.37,883.88 -235.46,235.46 -526.5,353.19 -873.12,353.19 -339.44,0 -628.09,-120.12 -865.95,-360.37 -237.85,-240.24 -356.78,-532.48 -356.78,-876.71 0,-349.01 118.33,-644.23 354.99,-885.67 236.66,-241.44 524.71,-362.16 864.16,-362.16 224.7,0 432.68,57.97 623.91,173.91 191.24,115.94 340.64,273.11 448.21,471.52l-405.19 0c-200.8,-217.53 -418.33,-326.3 -652.6,-326.3 -243.83,0 -451.8,90.84 -623.92,272.51 -172.11,181.68 -258.17,400.4 -258.17,656.19 0,248.61 87.25,463.75 261.76,645.43 174.5,181.68 382.47,272.51 623.91,272.51 207.97,0 396.82,-71.72 566.54,-215.14 105.18,-88.45 191.24,-216.34 258.17,-383.67l-1115.16 0 0 -319.13z"/>
  <path fill="#373435" fill-rule="nonzero" d="M2836.82 2735.81l0 -362.72 391.29 0 0 362.72 -391.29 0zm0 1682.24l0 -1482.32 391.29 0 0 1482.32 -391.29 0z"/>
  <path id="1" fill="none" fill-rule="nonzero" stroke="#373435" stroke-width="20.74" stroke-miterlimit="2.61313" d="M2836.82 2735.81l0 -362.72 391.29 0 0 362.72 -391.29 0zm0 1682.24l0 -1482.32 391.29 0 0 1482.32 -391.29 0z"/>
  <path fill="#373435" fill-rule="nonzero" d="M4978.42 4418.06l-391.29 0 0 -755.44c0,-159.94 -8.57,-263.23 -25.23,-309.88 -17.14,-47.13 -44.27,-83.3 -82.35,-109.49 -38.08,-26.18 -83.78,-39.03 -137.1,-39.03 -68.55,0 -129.95,18.56 -184.22,55.69 -54.74,37.13 -91.87,86.63 -111.86,147.57 -20.47,61.41 -30.47,174.7 -30.47,340.35l0 670.23 -391.29 0 0 -1482.32 362.72 0 0 217.54c129.95,-166.13 293.23,-248.96 490.77,-248.96 86.64,0 166.13,15.71 238.01,46.65 72.35,31.42 126.62,70.93 163.27,119 37.13,48.55 62.84,103.29 77.12,164.7 14.76,61.41 21.9,149 21.9,263.24l0 920.14z"/>
  <path id="1" fill="none" fill-rule="nonzero" stroke="#373435" stroke-width="20.74" stroke-miterlimit="2.61313" d="M4978.42 4418.06l-391.29 0 0 -755.44c0,-159.94 -8.57,-263.23 -25.23,-309.88 -17.14,-47.13 -44.27,-83.3 -82.35,-109.49 -38.08,-26.18 -83.78,-39.03 -137.1,-39.03 -68.55,0 -129.95,18.56 -184.22,55.69 -54.74,37.13 -91.87,86.63 -111.86,147.57 -20.47,61.41 -30.47,174.7 -30.47,340.35l0 670.23 -391.29 0 0 -1482.32 362.72 0 0 217.54c129.95,-166.13 293.23,-248.96 490.77,-248.96 86.64,0 166.13,15.71 238.01,46.65 72.35,31.42 126.62,70.93 163.27,119 37.13,48.55 62.84,103.29 77.12,164.7 14.76,61.41 21.9,149 21.9,263.24l0 920.14z"/>
  <path fill="#373435" fill-rule="nonzero" d="M6354.59 4418.06l0 -221.82c-54.26,79.02 -125.19,141.85 -213.25,188.98 -88.06,46.65 -180.88,69.97 -278.47,69.97 -99.96,0 -189.45,-21.9 -268.47,-65.69 -79.49,-43.79 -136.62,-105.68 -171.84,-184.69 -35.7,-79.5 -53.31,-188.98 -53.31,-328.93l0 -940.13 391.29 0 0 682.61c0,208.97 7.14,336.54 21.9,383.67 14.28,47.13 40.46,84.73 79.02,111.86 38.08,27.61 86.63,41.41 145.66,41.41 67.12,0 127.1,-18.57 180.41,-55.22 53.31,-36.65 89.49,-82.35 109.01,-137.09 19.52,-54.74 29.51,-188.03 29.51,-400.81l0 -626.44 391.29 0 0 1482.32 -362.73 0z"/>
  <path id="1" fill="none" fill-rule="nonzero" stroke="#373435" stroke-width="20.74" stroke-miterlimit="2.61313" d="M6354.59 4418.06l0 -221.82c-54.26,79.02 -125.19,141.85 -213.25,188.98 -88.06,46.65 -180.88,69.97 -278.47,69.97 -99.96,0 -189.45,-21.9 -268.47,-65.69 -79.49,-43.79 -136.62,-105.68 -171.84,-184.69 -35.7,-79.5 -53.31,-188.98 -53.31,-328.93l0 -940.13 391.29 0 0 682.61c0,208.97 7.14,336.54 21.9,383.67 14.28,47.13 40.46,84.73 79.02,111.86 38.08,27.61 86.63,41.41 145.66,41.41 67.12,0 127.1,-18.57 180.41,-55.22 53.31,-36.65 89.49,-82.35 109.01,-137.09 19.52,-54.74 29.51,-188.03 29.51,-400.81l0 -626.44 391.29 0 0 1482.32 -362.73 0z"/>
  <polygon fill="#373435" fill-rule="nonzero" points="6929.63,4418.06 7463.72,3654.53 6952.48,2935.74 7430.4,2935.74 7692.21,3343.21 7970.2,2935.74 8429.08,2935.74 7926.89,3637.86 8474.78,4418.06 7997.34,4418.06 7692.21,3958.7 7388.51,4418.06 "/>
  <polygon id="1" fill="none" fill-rule="nonzero" stroke="#373435" stroke-width="20.74" stroke-miterlimit="2.61313" points="6929.63,4418.06 7463.72,3654.53 6952.48,2935.74 7430.4,2935.74 7692.21,3343.21 7970.2,2935.74 8429.08,2935.74 7926.89,3637.86 8474.78,4418.06 7997.34,4418.06 7692.21,3958.7 7388.51,4418.06 "/>
  <g id="_2205424883920">
   <path fill="#F58634" fill-opacity="0.800000" d="M4331.84 0l1486.29 183.27c-1181.4,-188.4 -1292.49,677.57 -2470.73,594.94l984.44 -778.21z"/>
   <polygon fill="url(#id0)" fill-opacity="0.800000" points="4336.62,2250.44 5885.23,1313.39 3294.51,1287.05 "/>
   <path fill="url(#id1)" fill-opacity="0.800000" d="M5137.66 1150.5l924.79 60 -1725.83 1039.95c592.28,-591.39 795.72,-620.55 801.04,-1099.94z"/>
   <path fill="url(#id2)" fill-opacity="0.800000" d="M4336.62 2250.43l-1320.15 -1203.71 759.47 -603.77c-160.77,702.53 168.82,1274.54 560.68,1807.47z"/>
   <polygon fill="#FFF212" fill-opacity="0.568627" points="4332.55,0.21 5829.03,176.72 3437.9,1429.53 3009.14,1049.36 "/>
  </g>
 </g>
</svg>
