<?xml version="1.0" encoding="UTF-8"?>
<!DOCTYPE svg PUBLIC "-//W3C//DTD SVG 1.1//EN" "http://www.w3.org/Graphics/SVG/1.1/DTD/svg11.dtd">
<!-- Creator: CorelDRAW 2018 (64-Bit Evaluation Version) -->
<svg xmlns="http://www.w3.org/2000/svg" xml:space="preserve" width="6in" height="5in" version="1.1" shape-rendering="geometricPrecision" text-rendering="geometricPrecision" image-rendering="optimizeQuality" fill-rule="evenodd" clip-rule="evenodd"
viewBox="0 0 3979.2 4895.98"
 xmlns:xlink="http://www.w3.org/1999/xlink">
 <g id="Layer_x0020_1">
  <metadata id="CorelCorpID_0Corel-Layer"/>
  <path fill="#74DCE7" d="M1483.43 1249.68l127.74 400.65c275.4,-88.5 550.45,-191.72 824,-288.22 138.08,-48.71 272.49,-95.04 408.28,-144.04 74.55,-26.9 363.35,-144.16 419.19,-135.74l0 -23.54c-15.15,-3.67 -13.17,17.92 -11.33,-17.47l0 -10.42c-13.96,-7.82 -12.14,13.92 -10.5,-20.83l0 -10.42c-13.78,-7.77 -12.22,13.86 -10.27,-20.83l0 -10.42c-14.06,-7.82 -12.22,13.94 -10.57,-20.84l0 -10.42c-14.09,-7.94 -11.72,14.56 -10.75,-20.83l0 -10.42c-13.55,-7.87 -11.59,14.45 -10.23,-20.84l0 -10.42c-13.93,-7.95 -11.52,14.55 -10.65,-20.83l0 -10.42 -10.81 -20.83 0 -10.42 -10.13 -20.84 0 -10.42 -10.73 -20.83 0 -10.42 -10.67 -20.84 0 -10.42 -10.22 -20.83 0 -10.42 -10.86 -20.83 0 -10.42 -10.57 -20.84 0 -10.42 -10.33 -20.83 0 -10.42 -10.81 -20.84 0 -10.42 -10.49 -20.83 0 -10.42 -10.44 -20.83 0 -10.42 -10.76 -20.84 0 -10.42 -9.03 -20.83c-59.78,1.33 -756.13,239.91 -829.52,264.38 -77.39,25.81 -765.81,265.58 -826.96,266.94 1.04,46.8 65.3,239.46 87.4,270.87z"/>
  <path fill="#5EB1BA" d="M1611.17 1650.33l4.46 5.39c26.9,82.64 58.19,234.46 104.81,295.17 92.17,-420.22 686.2,-231.07 497.82,184.33l313.34 -104.18c104.18,-28.49 213.67,-69.46 313.87,-102.85l547 -182.27c39.47,-12.61 57.92,-11.04 75.67,-37.83l0 -10.42 -10.52 -20.84 0 -10.42 -11.26 -20.83 0 -10.42 -9.97 -20.83 0 -10.42 -10.47 -20.84 0 -10.42 -8.78 -31.25c-10.65,-11.5 -10.42,18.22 -10.42,-31.26 -10.65,-11.5 -10.42,18.22 -10.42,-31.26 -10.65,-11.5 -10.42,18.23 -10.42,-31.25 -10.65,-11.5 -10.42,18.22 -10.42,-31.26 -10.65,-11.5 -10.42,18.23 -10.42,-31.25 -10.65,-11.5 -10.42,18.22 -10.42,-31.26 -10.65,-11.5 -10.42,18.22 -10.42,-31.26 -9.61,-10.37 -13.2,17.82 -8.22,-31.25l0 -10.42c-16.16,-8.09 -12.61,15.05 -12.61,-20.84 -9.47,-10.22 -13.53,17.67 -7.95,-31.25l0 -10.42c-15.87,-7.78 -14.93,14.64 -11.07,-20.83l0 -10.42c-15.02,-7.76 -14.94,14.7 -9.83,-20.84l0 -10.42c-15.61,-7.69 -14.86,13 -10.83,-20.83l0 -10.42c-15.16,-7.72 -14.03,14.02 -10.91,-20.84l0 -10.42c-12.33,-6.54 -14.67,6.69 -10.13,-11.08 -55.85,-8.42 -344.64,108.84 -419.19,135.74 -135.79,49 -270.2,95.33 -408.28,144.04 -273.55,96.5 -548.61,199.73 -824,288.22z"/>
  <path fill="#2B5770" d="M579.42 1812.26l57.99 185.53 12.68 10.88c7.33,-31.37 -17.84,-13.92 97.65,-52.54 138.53,-46.32 805.96,-290.91 867.89,-300.41l-4.46 -5.39 -127.74 -400.65 -492.39 168.02c-77.41,27.99 -163.96,51.31 -240.94,82.02 -66.06,26.35 -179.33,66.87 -250.03,83.34l52.97 165.44c9.87,32.57 3.47,36.3 26.38,63.76z"/>
  <path fill="#2B5770" d="M3052.5 447.48c12.78,7.75 11.97,-14.62 9.03,20.83l0 10.42c14.55,7.79 12.93,-14 10.76,20.84l0 10.42c14.09,7.77 12.56,-13.92 10.44,20.83l0 10.42c14.09,7.78 12.47,-13.93 10.49,20.83l0 10.42c14.19,7.89 11.98,-14 10.81,20.84l0 10.42c13.68,7.87 11.71,-14.47 10.33,20.83l0 10.42c13.89,7.93 11.64,-14.52 10.57,20.84l0 10.42 10.86 20.83 0 10.42 10.22 20.83 0 10.42 10.67 20.84 0 10.42 10.73 20.83 0 10.42 10.13 20.84 0 10.42 10.81 20.83 0 10.42 10.65 20.83 0 10.42 10.23 20.84 0 10.42 10.75 20.83 0 10.42 10.57 20.84 0 10.42 10.27 20.83 0 10.42 10.5 20.83 0 10.42 11.33 17.47c67.41,7.18 326.56,-107.47 414.94,-132.78l-303.61 -926 -414.72 136.5c7.24,91.69 85.48,217.74 93.24,310.98z"/>
  <path fill="#224559" d="M3262.65 1058.79l0 23.54c11.85,-4.71 6.93,-24.69 10.13,11.08l0 10.42 10.91 20.84 0 10.42 10.83 20.83 0 10.42 9.83 20.84 0 10.42 11.07 20.83 0 10.42 7.95 31.25 12.61 20.84 0 10.42 8.22 31.25c10.65,11.5 10.42,-18.22 10.42,31.26 10.65,11.5 10.42,-18.22 10.42,31.26 10.65,11.5 10.42,-18.23 10.42,31.25 10.65,11.5 10.42,-18.22 10.42,31.26 10.65,11.5 10.42,-18.23 10.42,31.25 10.65,11.5 10.42,-18.22 10.42,31.26 10.65,11.5 10.42,-18.22 10.42,31.26 9.9,10.69 12.51,-18.07 8.78,31.25l0 10.42c14.83,7.78 13.83,-14.63 10.47,20.84l0 10.42c14.81,7.8 14.28,-14.71 9.97,20.83l0 10.42c15.35,7.79 13.75,-14.1 11.26,20.83l0 10.42c14.26,7.76 12.78,-13.94 10.52,20.84l0 10.42c1.57,2.06 3.57,2.94 4.14,6.6 0.57,3.67 3.3,5.15 4.06,6.66 27.75,54.98 57.52,186.48 86.65,247.19l416.2 -137 -294.04 -891.85c-0.91,-1.88 -2.99,-5.35 -3.76,-6.86 -0.76,-1.5 -2.37,-4.65 -3.81,-6.82 -88.39,25.31 -347.53,139.96 -414.94,132.78z"/>
  <path fill="#D9451F" d="M1635.64 3236.87l-250.04 -0.78c-28.55,70.8 -48.22,142.56 -77.32,217.83 -146.97,380.17 -283.7,800.41 -428.76,1175.63 -13.73,35.51 -28.51,73.57 -39.29,107.12 -27.92,86.89 36.58,164.37 116.96,159.06 116.01,-7.65 146.67,-215.95 209.64,-374.75l468.81 -1284.1z"/>
  <path fill="#D9451F" d="M2594.11 3236.09l-250.04 0.71c71.25,155.63 304.57,844.94 391.49,1069.78 28.96,74.91 49.3,143.75 77.32,214.39 62.97,158.8 93.63,367.1 209.64,374.75 80.38,5.3 144.88,-72.18 116.96,-159.06 -10.78,-33.55 -25.56,-71.61 -39.29,-107.12 -15.2,-39.33 -24.33,-68.4 -38.78,-107.07 -130.31,-348.78 -257.01,-724.58 -389.98,-1068.55 -29.1,-75.27 -48.78,-147.02 -77.32,-217.83z"/>
  <path fill="#224559" d="M650.09 2008.67l27.56 116.13 71.06 219.24c69.48,-16.33 176.94,-54.19 244.06,-80.76 131.35,-51.99 634.25,-210.6 727.1,-253.09l0.57 -59.31c-46.61,-60.72 -77.91,-212.53 -104.81,-295.17 -61.93,9.51 -729.37,254.09 -867.89,300.41 -115.49,38.61 -90.31,21.17 -97.65,52.54z"/>
  <path fill="#AE3719" d="M1385.61 3236.09l250.04 0.78c13.71,-51.65 36.57,-103.35 55.89,-160.22l182.33 -483.03 0.79 -364.52c-48.71,-26.54 -58.13,-47.14 -93.15,-66.12l-197.94 534.81c-16.65,41.76 -30.22,84.02 -47.65,129.45l-150.29 408.84z"/>
  <path fill="#AE3719" d="M2104.96 2229l0.88 364.61c25.73,33.3 176.15,475.05 208.48,561.09 10.22,27.2 20.9,48.89 29.74,82.1l250.04 -0.71 -395.89 -1073.5c-35.39,19.45 -43.84,39.53 -93.26,66.41z"/>
  <path fill="#BF5544" d="M1873.86 2593.61l1.4 643.04 229.2 0 1.39 -643.04 -0.88 -364.61c-90.12,36.26 -140.56,34.8 -230.31,0.1l-0.79 364.52z"/>
  <path fill="#CBA545" d="M1720.44 1950.89l-0.57 59.31c-0.67,59.1 33.98,120.46 61.63,152.78 35.02,18.98 44.44,39.58 93.15,66.12 89.76,34.7 140.2,36.16 230.31,-0.1 49.42,-26.87 57.86,-46.95 93.26,-66.41l20.04 -27.38c188.38,-415.4 -405.65,-604.54 -497.82,-184.33z"/>
  <path fill="#74DCE7" d="M74.13 2197.72l563.28 -199.94 -57.99 -185.53 -437.48 131.52c-50.6,16.47 -99.91,25.41 -141.94,45.58l50.36 157.92c4.98,14.62 2.38,9.52 8.36,23.04 1.32,2.98 5.85,11.69 7.15,14.14 0.98,1.84 3.26,5.2 4.09,6.67 0.82,1.46 2.59,4.54 4.18,6.6z"/>
  <path fill="#5EB1BA" d="M74.13 2197.72c1.56,45.05 15.85,48.37 19.63,93.76 57.46,-1.28 346.98,-98.97 436.24,-126.34 34.24,-10.5 112.03,-37.44 147.65,-40.35l-27.56 -116.13 -12.68 -10.88 -563.28 199.94z"/>
  <polygon fill="#ED6A55" points="2104.46,3236.65 1875.26,3236.65 "/>
 </g>
</svg>
